<?xml version="1.0" encoding="utf-8"?>
<!-- Generator: Adobe Illustrator 19.2.0, SVG Export Plug-In . SVG Version: 6.00 Build 0)  -->
<svg version="1.1" id="Calque_1" xmlns="http://www.w3.org/2000/svg" xmlns:xlink="http://www.w3.org/1999/xlink" x="0px" y="0px"
	 viewBox="0 0 70.8 106.2" style="enable-background:new 0 0 70.8 106.2;" xml:space="preserve">
<style type="text/css">
	.st0{display:none;}
	.st1{display:inline;}
	.st2{fill:#93C254;}
	.st3{clip-path:url(#SVGID_2_);fill:#FFFFFF;}
	.st4{fill:#6F6F6E;}
	.st5{clip-path:url(#SVGID_4_);fill:#FFFFFF;}
</style>
<g class="st0">
	<g class="st1">
		<path class="st2" d="M25,31.2C11.3,31.2,0.2,42.3,0.2,56c0,5.5,3.5,14.5,10.8,27.5c5.1,9.2,10.2,16.8,10.4,17.1l3.7,5.6l3.7-5.6
			c0.2-0.3,5.2-8,10.4-17.1c7.2-13,10.8-22,10.8-27.5C49.8,42.3,38.7,31.2,25,31.2L25,31.2z M25,68.7"/>
	</g>
	<g class="st1">
		<g>
			<defs>
				<rect id="SVGID_1_" x="6.9" y="39.7" width="36.1" height="29.5"/>
			</defs>
			<clipPath id="SVGID_2_">
				<use xlink:href="#SVGID_1_"  style="overflow:visible;"/>
			</clipPath>
			<path class="st3" d="M43.1,53.1l-3.6-7.8l-13.8-5.6l-14.9,5.7L6.9,51l3.8-0.3v12.7L25.2,69l14.3-5.7v-8.7L43.1,53.1z M25.7,50.8
				v-9.9l12.4,5.1L25.7,50.8z M24.6,67.7l-12.8-5.1V46.8l12.8,5.1V67.7z M38.5,62.6l-12.8,5.1V51.9l2.8,7.5l10-4.3V62.6z M38.5,62.6
				"/>
		</g>
	</g>
</g>
<g>
	<g>
		<path class="st4" d="M35.4,0C16,0,0.2,15.8,0.2,35.1c0,7.8,5,20.5,15.2,38.9c7.2,13,14.4,23.8,14.7,24.3l5.2,7.9l5.2-7.9
			C40.9,97.8,48,87,55.3,74c10.2-18.4,15.2-31.1,15.2-38.9C70.5,15.8,54.8,0,35.4,0L35.4,0z M35.4,53.1"/>
	</g>
</g>
<g>
	<g>
		<defs>
			<rect id="SVGID_3_" x="13.8" y="15.5" width="42.4" height="40"/>
		</defs>
		<clipPath id="SVGID_4_">
			<use xlink:href="#SVGID_3_"  style="overflow:visible;"/>
		</clipPath>
		<path class="st5" d="M49,34.9c-0.7,0-1.2,0.5-1.2,1.2v16.6h-8.6v-6.8c0-0.6-0.5-1.2-1.2-1.2h-6.2c-0.7,0-1.2,0.6-1.2,1.2v6.8H22
			v-16c0-0.6-0.5-1.2-1.2-1.2c-0.6,0-1.2,0.5-1.2,1.2v17.3c0,0.6,0.5,1.2,1.2,1.2h11c0.6,0,1.2-0.5,1.2-1.2v-6.8h3.8v6.8
			c0,0.6,0.5,1.2,1.2,1.2h11c0.6,0,1.2-0.5,1.2-1.2V36.1C50.2,35.4,49.7,34.9,49,34.9L49,34.9z M49,34.9"/>
		<path class="st5" d="M55.6,35.9L46,26.2v-6.6c0-0.7-0.6-1.2-1.2-1.2c-0.6,0-1.2,0.5-1.2,1.2v4.2l-7.9-7.9
			c-0.2-0.2-0.5-0.4-0.8-0.4c-0.3,0-0.6,0.1-0.9,0.4L14.2,35.7c-0.5,0.5-0.5,1.2,0,1.7c0.4,0.5,1.2,0.5,1.7,0l19-19l19,19.2
			c0.2,0.2,0.5,0.3,0.9,0.3c0.3,0,0.6-0.1,0.9-0.3C56.1,37.1,56.1,36.3,55.6,35.9L55.6,35.9z M55.6,35.9"/>
	</g>
</g>
</svg>
