<svg id="Calque_1" data-name="Calque 1" xmlns="http://www.w3.org/2000/svg" viewBox="0 0 49.64 75.04"><defs><style>.cls-1{fill:#93c254;}.cls-2{fill:#fff;}</style></defs><title>ico_ram_v</title><path class="cls-1" d="M25,0A24.85,24.85,0,0,0,.18,24.82c0,5.51,3.52,14.5,10.76,27.48,5.12,9.18,10.16,16.83,10.37,17.15L25,75l3.69-5.59c0.21-.32,5.25-8,10.37-17.15,7.24-13,10.76-22,10.76-27.48A24.85,24.85,0,0,0,25,0h0Zm0,37.52" transform="translate(-0.18 0)"/><path class="cls-2" d="M38.92,15.52l0-.05L25,10,11.1,15.53l0,0v0h0V33l14,5.47L39,33V15.51h0ZM25,11.1l4.73,1.69-12.88,5-4.36-1.72ZM24.5,37.24l-5.22-2.11-2.62-1L12,32.33V17l4.56,1.8v3.84L17,22.5l0.28,0.38,0.38-.09L18,23.18l0.32-.11,0.52,0.52V19.67l0.41,0.16,5.21,2.05V37.24ZM25,21l-5.1-2,12.56-5.09L37.65,16ZM38,32.33L25.5,37.24V21.89L38,17V32.33h0Zm0,0" transform="translate(-0.18 0)"/></svg>