<svg id="Calque_1" data-name="Calque 1" xmlns="http://www.w3.org/2000/svg" xmlns:xlink="http://www.w3.org/1999/xlink" viewBox="0 0 49.41 74.69"><defs><style>.cls-1{fill:none;}.cls-2{fill:#d45453;}.cls-3{clip-path:url(#clip-path);}.cls-4{fill:#fff;}</style><clipPath id="clip-path" transform="translate(-0.3 -0.16)"><rect class="cls-1" x="7" y="8.6" width="35.99" height="29.43"/></clipPath></defs><title>ico_liv_a</title><path class="cls-2" d="M25,0.16A24.73,24.73,0,0,0,.3,24.86C0.3,30.35,3.8,39.29,11,52.21,16.1,61.34,21.12,69,21.33,69.28L25,74.84l3.67-5.57C28.88,69,33.9,61.34,39,52.21,46.2,39.29,49.71,30.35,49.71,24.86A24.73,24.73,0,0,0,25,.16h0ZM25,37.5" transform="translate(-0.3 -0.16)"/><g class="cls-3"><path class="cls-4" d="M43,21.93l-3.58-7.75L25.72,8.6,10.88,14.24,7,19.87l3.83-.34V32.16l14.35,5.68,14.24-5.68V23.46ZM25.74,19.62V9.71l12.35,5ZM24.62,36.5l-12.76-5V15.72l12.76,5V36.5Zm13.79-5-12.76,5V20.76l2.8,7.42,10-4.28v7.56Zm0,0" transform="translate(-0.3 -0.16)"/></g></svg>