<svg id="Calque_1" data-name="Calque 1" xmlns="http://www.w3.org/2000/svg" viewBox="0 0 49.62 75"><defs><style>.cls-1{fill:#d45453;}.cls-2{fill:#fff;}</style></defs><title>ico_ram_a</title><path class="cls-1" d="M25,0A24.84,24.84,0,0,0,.18,24.85c0,5.51,3.52,14.49,10.76,27.46,5.12,9.17,10.15,16.82,10.37,17.14L25,75l3.69-5.59c0.21-.32,5.25-8,10.37-17.14,7.24-13,10.76-22,10.76-27.46A24.84,24.84,0,0,0,25,0h0Zm0,37.5" transform="translate(-0.18 -0.05)"/><path class="cls-2" d="M38.72,15.51l0-.05L24.82,10l-13.9,5.5,0,0v0h0V33l13.94,5.46L38.75,33V15.5h0ZM24.8,11.09l4.72,1.69-12.88,5-4.36-1.72ZM24.31,37.22l-5.22-2.11-2.62-1-4.61-1.82V17l4.56,1.8V22.6l0.41-.11,0.27,0.38,0.38-.09,0.37,0.39,0.32-.11,0.52,0.52V19.66l0.41,0.16,5.2,2.05V37.22ZM24.81,21l-5.09-2L32.27,13.9,37.45,16ZM37.76,32.31L25.31,37.22V21.87L37.76,17V32.31h0Zm0,0" transform="translate(-0.18 -0.05)"/></svg>