<svg id="Calque_1" data-name="Calque 1" xmlns="http://www.w3.org/2000/svg" xmlns:xlink="http://www.w3.org/1999/xlink" viewBox="0 0 49.62 75"><defs><style>.cls-1{fill:none;}.cls-2{fill:#93c254;}.cls-3{clip-path:url(#clip-path);}.cls-4{fill:#fff;}</style><clipPath id="clip-path" transform="translate(-0.19 0)"><rect class="cls-1" x="6.93" y="8.48" width="36.14" height="29.55"/></clipPath></defs><title>ico_liv_v</title><path class="cls-2" d="M25,0A24.84,24.84,0,0,0,.19,24.81c0,5.51,3.52,14.49,10.76,27.46,5.12,9.17,10.15,16.82,10.37,17.14L25,75l3.69-5.59c0.21-.32,5.25-8,10.37-17.14,7.24-13,10.76-22,10.76-27.46A24.84,24.84,0,0,0,25,0h0Zm0,37.5" transform="translate(-0.19 0)"/><g class="cls-3"><path class="cls-4" d="M43.07,21.86l-3.6-7.78L25.72,8.48l-14.9,5.66L6.93,19.79l3.85-.34V32.13l14.41,5.7,14.3-5.7V23.4ZM25.75,19.54V9.6l12.41,5.06ZM24.62,36.49L11.8,31.44V15.63l12.82,5.06V36.49Zm13.84-5.06L25.65,36.49V20.69l2.81,7.45,10-4.3v7.6Zm0,0" transform="translate(-0.19 0)"/></g></svg>