<svg id="Calque_1" data-name="Calque 1" xmlns="http://www.w3.org/2000/svg" xmlns:xlink="http://www.w3.org/1999/xlink" viewBox="0 0 49.57 74.93"><defs><style>.cls-1{fill:none;}.cls-2{fill:#6f6f6e;}.cls-3{clip-path:url(#clip-path);}.cls-4{fill:#fff;}</style><clipPath id="clip-path" transform="translate(-0.24 -0.08)"><rect class="cls-1" x="9.84" y="11.03" width="29.89" height="28.23"/></clipPath></defs><title>ico_home</title><path class="cls-2" d="M25,0.08A24.81,24.81,0,0,0,.24,24.87c0,5.5,3.51,14.48,10.74,27.43,5.11,9.16,10.14,16.8,10.36,17.13L25,75l3.68-5.58c0.21-.32,5.24-8,10.36-17.13,7.23-13,10.75-21.93,10.75-27.43A24.81,24.81,0,0,0,25,.08h0Zm0,37.46" transform="translate(-0.24 -0.08)"/><g class="cls-3"><path class="cls-4" d="M34.65,24.72a0.84,0.84,0,0,0-.85.86v11.7H27.72V32.5a0.85,0.85,0,0,0-.83-0.84H22.51a0.87,0.87,0,0,0-.87.84v4.78H15.58V26a0.84,0.84,0,0,0-1.68,0V38.13a0.83,0.83,0,0,0,.82.83h7.78a0.83,0.83,0,0,0,.82-0.83V33.35H26v4.78a0.84,0.84,0,0,0,.86.83h7.75a0.83,0.83,0,0,0,.83-0.83V25.57a0.84,0.84,0,0,0-.83-0.86h0Zm0,0" transform="translate(-0.24 -0.08)"/><path class="cls-4" d="M39.3,25.38L32.55,18.6V14a0.86,0.86,0,0,0-.87-0.85,0.84,0.84,0,0,0-.83.85V16.9L25.28,11.3A0.81,0.81,0,0,0,24.7,11a0.84,0.84,0,0,0-.61.27l-14,14a0.84,0.84,0,0,0,1.18,1.18L24.7,13.09,38.09,26.6a0.83,0.83,0,0,0,.61.22,0.94,0.94,0,0,0,.61-0.22,0.89,0.89,0,0,0,0-1.22h0Zm0,0" transform="translate(-0.24 -0.08)"/></g></svg>